<svg width="128" height="96" viewBox="0 0 128 96" fill="none" xmlns="http://www.w3.org/2000/svg">
<rect width="128" height="96" rx="32" fill="#FF4C4C" fill-opacity="0.71"/>
<path d="M75 38V58C75 58.5304 74.7893 59.0391 74.4142 59.4142C74.0391 59.7893 73.5304 60 73 60H68.5C67.9696 60 67.4609 59.7893 67.0858 59.4142C66.7107 59.0391 66.5 58.5304 66.5 58V38C66.5 37.4696 66.7107 36.9609 67.0858 36.5858C67.4609 36.2107 67.9696 36 68.5 36H73C73.5304 36 74.0391 36.2107 74.4142 36.5858C74.7893 36.9609 75 37.4696 75 38ZM59.5 36H55C54.4696 36 53.9609 36.2107 53.5858 36.5858C53.2107 36.9609 53 37.4696 53 38V58C53 58.5304 53.2107 59.0391 53.5858 59.4142C53.9609 59.7893 54.4696 60 55 60H59.5C60.0304 60 60.5391 59.7893 60.9142 59.4142C61.2893 59.0391 61.5 58.5304 61.5 58V38C61.5 37.4696 61.2893 36.9609 60.9142 36.5858C60.5391 36.2107 60.0304 36 59.5 36Z" fill="#471515"/>
</svg>
