<svg width="136" height="48" viewBox="0 0 136 48" fill="none" xmlns="http://www.w3.org/2000/svg">
<rect x="1" y="1" width="134" height="46" rx="23" fill="#FF4C4C" fill-opacity="0.15"/>
<path d="M47 24.4998C47.0001 23.1751 46.6243 21.8775 45.9162 20.7579C45.2081 19.6382 44.1969 18.7425 43 18.1748V16.9998C42.9991 15.7112 42.5834 14.4571 41.8144 13.4232C41.0454 12.3892 39.9639 11.6303 38.7301 11.2587C37.4962 10.8872 36.1755 10.9227 34.9635 11.3601C33.7514 11.7975 32.7123 12.6135 32 13.6873C31.2877 12.6135 30.2486 11.7975 29.0366 11.3601C27.8245 10.9227 26.5038 10.8872 25.2699 11.2587C24.0361 11.6303 22.9546 12.3892 22.1856 13.4232C21.4166 14.4571 21.0009 15.7112 21 16.9998V18.1748C19.8029 18.7424 18.7915 19.6381 18.0833 20.7577C17.375 21.8773 16.9991 23.175 16.9991 24.4998C16.9991 25.8246 17.375 27.1222 18.0833 28.2419C18.7915 29.3615 19.8029 30.2572 21 30.8248V30.9998C21.0009 32.2884 21.4166 33.5424 22.1856 34.5764C22.9546 35.6103 24.0361 36.3693 25.2699 36.7408C26.5038 37.1124 27.8245 37.0768 29.0366 36.6395C30.2486 36.2021 31.2877 35.3861 32 34.3123C32.7123 35.3861 33.7514 36.2021 34.9635 36.6395C36.1755 37.0768 37.4962 37.1124 38.7301 36.7408C39.9639 36.3693 41.0454 35.6103 41.8144 34.5764C42.5834 33.5424 42.9991 32.2884 43 30.9998V30.8248C44.196 30.2558 45.2064 29.3598 45.9143 28.2405C46.6222 27.1211 46.9986 25.8242 47 24.4998ZM27 34.9998C26.0131 34.9992 25.0613 34.6338 24.3275 33.9739C23.5938 33.314 23.1299 32.4061 23.025 31.4248C23.3475 31.4756 23.6735 31.5007 24 31.4998H25C25.2652 31.4998 25.5196 31.3944 25.7071 31.2069C25.8946 31.0194 26 30.765 26 30.4998C26 30.2346 25.8946 29.9802 25.7071 29.7927C25.5196 29.6051 25.2652 29.4998 25 29.4998H24C22.8217 29.4978 21.6819 29.0797 20.7817 28.3192C19.8816 27.5588 19.279 26.5048 19.0802 25.3434C18.8814 24.1819 19.0992 22.9876 19.6951 21.971C20.2911 20.9545 21.2269 20.1811 22.3375 19.7873C22.5318 19.7157 22.6995 19.5862 22.818 19.4164C22.9365 19.2465 23 19.0444 23 18.8373V16.9998C23 15.9389 23.4214 14.9215 24.1716 14.1714C24.9217 13.4212 25.9391 12.9998 27 12.9998C28.0609 12.9998 29.0783 13.4212 29.8284 14.1714C30.5786 14.9215 31 15.9389 31 16.9998V26.5373C29.9052 25.5437 28.4785 24.9953 27 24.9998C26.7348 24.9998 26.4804 25.1051 26.2929 25.2927C26.1054 25.4802 26 25.7346 26 25.9998C26 26.265 26.1054 26.5194 26.2929 26.7069C26.4804 26.8944 26.7348 26.9998 27 26.9998C28.0609 26.9998 29.0783 27.4212 29.8284 28.1714C30.5786 28.9215 31 29.9389 31 30.9998C31 32.0607 30.5786 33.0781 29.8284 33.8282C29.0783 34.5784 28.0609 34.9998 27 34.9998ZM40 29.4998H39C38.7348 29.4998 38.4804 29.6051 38.2929 29.7927C38.1054 29.9802 38 30.2346 38 30.4998C38 30.765 38.1054 31.0194 38.2929 31.2069C38.4804 31.3944 38.7348 31.4998 39 31.4998H40C40.3265 31.5007 40.6525 31.4756 40.975 31.4248C40.8929 32.1935 40.5897 32.922 40.1022 33.522C39.6147 34.122 38.9638 34.568 38.2282 34.8058C37.4926 35.0436 36.7038 35.0632 35.9573 34.8621C35.2108 34.6611 34.5386 34.248 34.022 33.6729C33.5053 33.0977 33.1664 32.3852 33.0463 31.6215C32.9261 30.8578 33.0298 30.0756 33.3449 29.3696C33.66 28.6637 34.1729 28.0641 34.8215 27.6435C35.4702 27.2229 36.2269 26.9993 37 26.9998C37.2652 26.9998 37.5196 26.8944 37.7071 26.7069C37.8946 26.5194 38 26.265 38 25.9998C38 25.7346 37.8946 25.4802 37.7071 25.2927C37.5196 25.1051 37.2652 24.9998 37 24.9998C35.5215 24.9953 34.0948 25.5437 33 26.5373V16.9998C33 15.9389 33.4214 14.9215 34.1716 14.1714C34.9217 13.4212 35.9391 12.9998 37 12.9998C38.0609 12.9998 39.0783 13.4212 39.8284 14.1714C40.5786 14.9215 41 15.9389 41 16.9998V18.8373C41 19.0444 41.0635 19.2465 41.182 19.4164C41.3005 19.5862 41.4682 19.7157 41.6625 19.7873C42.7731 20.1811 43.7089 20.9545 44.3049 21.971C44.9008 22.9876 45.1186 24.1819 44.9198 25.3434C44.721 26.5048 44.1184 27.5588 43.2183 28.3192C42.3181 29.0797 41.1784 29.4978 40 29.4998ZM23.5 23.9998C23.2348 23.9998 22.9804 23.8944 22.7929 23.7069C22.6054 23.5194 22.5 23.265 22.5 22.9998C22.5 22.7346 22.6054 22.4802 22.7929 22.2927C22.9804 22.1051 23.2348 21.9998 23.5 21.9998C24.162 21.9965 24.796 21.7321 25.2641 21.2639C25.7323 20.7958 25.9967 20.1618 26 19.4998V18.4998C26 18.2346 26.1054 17.9802 26.2929 17.7927C26.4804 17.6051 26.7348 17.4998 27 17.4998C27.2652 17.4998 27.5196 17.6051 27.7071 17.7927C27.8946 17.9802 28 18.2346 28 18.4998V19.4998C28 20.6933 27.5259 21.8379 26.682 22.6818C25.8381 23.5257 24.6935 23.9998 23.5 23.9998ZM41.5 22.9998C41.5 23.265 41.3946 23.5194 41.2071 23.7069C41.0196 23.8944 40.7652 23.9998 40.5 23.9998C39.3065 23.9998 38.1619 23.5257 37.318 22.6818C36.4741 21.8379 36 20.6933 36 19.4998V18.4998C36 18.2346 36.1054 17.9802 36.2929 17.7927C36.4804 17.6051 36.7348 17.4998 37 17.4998C37.2652 17.4998 37.5196 17.6051 37.7071 17.7927C37.8946 17.9802 38 18.2346 38 18.4998V19.4998C38.0033 20.1618 38.2677 20.7958 38.7359 21.2639C39.204 21.7321 39.838 21.9965 40.5 21.9998C40.7652 21.9998 41.0196 22.1051 41.2071 22.2927C41.3946 22.4802 41.5 22.7346 41.5 22.9998Z" fill="#471515"/>
<path d="M58.2578 32H60.8477V24.5938H67.5156V22.543H60.8477V17.0234H68.5469V14.9375H58.2578V32ZM69.7422 26.1992C69.7422 28.0273 70.2734 29.5078 71.3359 30.6406C72.3984 31.7656 73.8086 32.3281 75.5664 32.3281C77.3242 32.3281 78.7344 31.7656 79.7969 30.6406C80.8594 29.5078 81.3906 28.0273 81.3906 26.1992V25.8242C81.3906 23.9883 80.8594 22.5078 79.7969 21.3828C78.7344 20.2578 77.3242 19.6953 75.5664 19.6953C73.8086 19.6953 72.3984 20.2578 71.3359 21.3828C70.2734 22.5078 69.7422 23.9883 69.7422 25.8242V26.1992ZM72.3086 25.7656C72.3086 24.5625 72.5859 23.582 73.1406 22.8242C73.6953 22.0586 74.5039 21.6758 75.5664 21.6758C76.6289 21.6758 77.4375 22.0586 77.9922 22.8242C78.5469 23.582 78.8242 24.5625 78.8242 25.7656V26.2461C78.8242 27.4492 78.5469 28.4336 77.9922 29.1992C77.4453 29.9648 76.6367 30.3477 75.5664 30.3477C74.5039 30.3477 73.6953 29.9648 73.1406 29.1992C72.5859 28.4336 72.3086 27.4531 72.3086 26.2578V25.7656ZM83.125 26.1992C83.125 28.043 83.6367 29.5273 84.6602 30.6523C85.6836 31.7695 87.0703 32.3281 88.8203 32.3281C90.4688 32.3281 91.7305 31.8984 92.6055 31.0391C93.4805 30.1719 93.918 29.1602 93.918 28.0039V27.8867H91.4805V27.9922C91.4727 28.6484 91.2578 29.207 90.8359 29.668C90.4141 30.1289 89.7422 30.3594 88.8203 30.3594C87.7656 30.3594 86.9805 29.9727 86.4648 29.1992C85.9492 28.4258 85.6914 27.4453 85.6914 26.2578V25.7539C85.6914 24.543 85.9531 23.5586 86.4766 22.8008C87 22.043 87.7852 21.6641 88.832 21.6641C89.7305 21.6641 90.3945 21.8906 90.8242 22.3438C91.2539 22.7969 91.4688 23.3516 91.4688 24.0078V24.1133H93.918L93.9062 23.9844C93.8906 22.8203 93.4531 21.8164 92.5938 20.9727C91.7344 20.1211 90.4766 19.6953 88.8203 19.6953C87.0703 19.6953 85.6836 20.2539 84.6602 21.3711C83.6367 22.4883 83.125 23.9727 83.125 25.8242V26.1992ZM96.0625 27.6875C96.0625 29.3203 96.4258 30.4883 97.1523 31.1914C97.8789 31.8867 98.8398 32.2344 100.035 32.2344C100.816 32.2344 101.52 32.0781 102.145 31.7656C102.777 31.4531 103.297 31.0195 103.703 30.4648H103.75L103.832 32H106.176V20.0234H103.656V28.332C103.391 28.8867 103.016 29.3398 102.531 29.6914C102.055 30.043 101.5 30.2188 100.867 30.2188C100.148 30.2188 99.5859 30.0273 99.1797 29.6445C98.7812 29.2617 98.582 28.6094 98.582 27.6875V20.0234H96.0625V27.6875ZM108.637 28.3555L108.648 28.4727C108.648 29.668 109.078 30.6094 109.938 31.2969C110.805 31.9844 112.055 32.3281 113.688 32.3281C115.328 32.3281 116.566 31.9883 117.402 31.3086C118.238 30.6289 118.656 29.7266 118.656 28.6016C118.656 27.5547 118.309 26.75 117.613 26.1875C116.918 25.6172 115.902 25.1797 114.566 24.875C113.301 24.5859 112.461 24.3164 112.047 24.0664C111.633 23.8164 111.426 23.4766 111.426 23.0469C111.426 22.6016 111.602 22.2461 111.953 21.9805C112.305 21.707 112.859 21.5703 113.617 21.5703C114.391 21.5703 114.965 21.7227 115.34 22.0273C115.715 22.3242 115.902 22.7578 115.902 23.3281V23.4805H118.363V23.3633C118.363 22.2227 117.93 21.3281 117.062 20.6797C116.203 20.0234 115.059 19.6953 113.629 19.6953C112.199 19.6953 111.062 20.0156 110.219 20.6562C109.375 21.2969 108.953 22.1406 108.953 23.1875C108.953 24.1719 109.305 24.9453 110.008 25.5078C110.719 26.0703 111.742 26.5039 113.078 26.8086C114.352 27.0977 115.184 27.375 115.574 27.6406C115.965 27.8984 116.16 28.2812 116.16 28.7891C116.16 29.2969 115.941 29.7031 115.504 30.0078C115.074 30.3047 114.465 30.4531 113.676 30.4531C112.895 30.4531 112.27 30.2969 111.801 29.9844C111.332 29.6641 111.098 29.168 111.098 28.4961V28.3672L108.637 28.3555Z" fill="#471515"/>
<rect x="1" y="1" width="134" height="46" rx="23" stroke="#471515" stroke-width="2"/>
</svg>
