<svg width="80" height="80" viewBox="0 0 80 80" fill="none" xmlns="http://www.w3.org/2000/svg">
<rect width="80" height="80" rx="24" fill="#FF4C4C" fill-opacity="0.15"/>
<path d="M55.65 39.9999C55.6515 40.3351 55.5687 40.6653 55.4093 40.9602C55.2498 41.2551 55.0188 41.5051 54.7375 41.6874L43.5875 48.8499C43.2849 49.0459 42.935 49.1565 42.5747 49.17C42.2144 49.1835 41.8571 49.0993 41.5408 48.9264C41.2244 48.7535 40.9607 48.4982 40.7774 48.1877C40.5942 47.8772 40.4984 47.5229 40.5 47.1624V41.8374L29.5875 48.8499C29.2849 49.0459 28.935 49.1565 28.5747 49.17C28.2144 49.1835 27.8571 49.0993 27.5408 48.9264C27.2244 48.7535 26.9607 48.4982 26.7774 48.1877C26.5942 47.8772 26.4984 47.5229 26.5 47.1624V32.8374C26.4984 32.4768 26.5942 32.1226 26.7774 31.8121C26.9607 31.5015 27.2244 31.2463 27.5408 31.0734C27.8571 30.9005 28.2144 30.8163 28.5747 30.8298C28.935 30.8432 29.2849 30.9538 29.5875 31.1499L40.5 38.1624V32.8374C40.4984 32.4768 40.5942 32.1226 40.7774 31.8121C40.9607 31.5015 41.2244 31.2463 41.5408 31.0734C41.8571 30.9005 42.2144 30.8163 42.5747 30.8298C42.935 30.8432 43.2849 30.9538 43.5875 31.1499L54.7375 38.3124C55.0188 38.4947 55.2498 38.7447 55.4093 39.0396C55.5687 39.3345 55.6515 39.6647 55.65 39.9999Z" fill="#471515"/>
</svg>
