<svg width="80" height="80" viewBox="0 0 80 80" fill="none" xmlns="http://www.w3.org/2000/svg">
<rect width="80" height="80" rx="24" fill="#FF4C4C" fill-opacity="0.15"/>
<path d="M43.5 40C43.5 40.6922 43.2947 41.3689 42.9101 41.9445C42.5256 42.5201 41.9789 42.9687 41.3394 43.2336C40.6999 43.4985 39.9961 43.5678 39.3172 43.4327C38.6383 43.2977 38.0146 42.9644 37.5251 42.4749C37.0356 41.9854 36.7023 41.3617 36.5673 40.6828C36.4322 40.0039 36.5015 39.3001 36.7664 38.6606C37.0313 38.0211 37.4799 37.4744 38.0555 37.0899C38.6311 36.7053 39.3078 36.5 40 36.5C40.9272 36.5033 41.8156 36.8731 42.4712 37.5288C43.1269 38.1844 43.4967 39.0728 43.5 40ZM30 36.5C29.3078 36.5 28.6311 36.7053 28.0555 37.0899C27.4799 37.4744 27.0313 38.0211 26.7664 38.6606C26.5015 39.3001 26.4322 40.0039 26.5673 40.6828C26.7023 41.3617 27.0356 41.9854 27.5251 42.4749C28.0146 42.9644 28.6383 43.2977 29.3172 43.4327C29.9961 43.5678 30.6999 43.4985 31.3394 43.2336C31.9789 42.9687 32.5256 42.5201 32.9101 41.9445C33.2947 41.3689 33.5 40.6922 33.5 40C33.4967 39.0728 33.1269 38.1844 32.4712 37.5288C31.8156 36.8731 30.9272 36.5033 30 36.5ZM50 36.5C49.3078 36.5 48.6311 36.7053 48.0555 37.0899C47.4799 37.4744 47.0313 38.0211 46.7664 38.6606C46.5015 39.3001 46.4322 40.0039 46.5673 40.6828C46.7023 41.3617 47.0356 41.9854 47.5251 42.4749C48.0146 42.9644 48.6383 43.2977 49.3172 43.4327C49.9961 43.5678 50.6999 43.4985 51.3394 43.2336C51.9789 42.9687 52.5256 42.5201 52.9101 41.9445C53.2947 41.3689 53.5 40.6922 53.5 40C53.4967 39.0728 53.1269 38.1844 52.4712 37.5288C51.8156 36.8731 50.9272 36.5033 50 36.5Z" fill="#471515"/>
</svg>
