<svg width="190" height="48" viewBox="0 0 190 48" fill="none" xmlns="http://www.w3.org/2000/svg">
<rect x="1" y="1" width="188" height="46" rx="23" fill="#4CACFF" fill-opacity="0.15"/>
<path d="M26 15V11C26 10.7348 26.1054 10.4804 26.2929 10.2929C26.4804 10.1054 26.7348 10 27 10C27.2652 10 27.5196 10.1054 27.7071 10.2929C27.8946 10.4804 28 10.7348 28 11V15C28 15.2652 27.8946 15.5196 27.7071 15.7071C27.5196 15.8946 27.2652 16 27 16C26.7348 16 26.4804 15.8946 26.2929 15.7071C26.1054 15.5196 26 15.2652 26 15ZM31 16C31.2652 16 31.5196 15.8946 31.7071 15.7071C31.8946 15.5196 32 15.2652 32 15V11C32 10.7348 31.8946 10.4804 31.7071 10.2929C31.5196 10.1054 31.2652 10 31 10C30.7348 10 30.4804 10.1054 30.2929 10.2929C30.1054 10.4804 30 10.7348 30 11V15C30 15.2652 30.1054 15.5196 30.2929 15.7071C30.4804 15.8946 30.7348 16 31 16ZM35 16C35.2652 16 35.5196 15.8946 35.7071 15.7071C35.8946 15.5196 36 15.2652 36 15V11C36 10.7348 35.8946 10.4804 35.7071 10.2929C35.5196 10.1054 35.2652 10 35 10C34.7348 10 34.4804 10.1054 34.2929 10.2929C34.1054 10.4804 34 10.7348 34 11V15C34 15.2652 34.1054 15.5196 34.2929 15.7071C34.4804 15.8946 34.7348 16 35 16ZM47 23V24C46.9993 25.2715 46.5142 26.495 45.6434 27.4215C44.7726 28.3481 43.5815 28.908 42.3125 28.9875C41.6237 30.9139 40.4634 32.6372 38.9375 34H42C42.2652 34 42.5196 34.1054 42.7071 34.2929C42.8946 34.4804 43 34.7348 43 35C43 35.2652 42.8946 35.5196 42.7071 35.7071C42.5196 35.8946 42.2652 36 42 36H20C19.7348 36 19.4804 35.8946 19.2929 35.7071C19.1054 35.5196 19 35.2652 19 35C19 34.7348 19.1054 34.4804 19.2929 34.2929C19.4804 34.1054 19.7348 34 20 34H23.0625C21.7882 32.8718 20.7673 31.4865 20.067 29.9352C19.3668 28.384 19.0032 26.702 19 25V19C19 18.7348 19.1054 18.4804 19.2929 18.2929C19.4804 18.1054 19.7348 18 20 18H42C43.3261 18 44.5979 18.5268 45.5355 19.4645C46.4732 20.4021 47 21.6739 47 23ZM41 20H21V25C21.0041 26.8772 21.5345 28.7157 22.531 30.3066C23.5275 31.8975 24.9502 33.1771 26.6375 34H35.3625C36.6229 33.384 37.7402 32.5107 38.6423 31.4364C39.5445 30.362 40.2114 29.1105 40.6 27.7625C40.6139 27.7397 40.6225 27.7141 40.625 27.6875C40.8763 26.8139 41.0025 25.909 41 25V20ZM45 23C44.9993 22.3802 44.8066 21.7758 44.4485 21.27C44.0904 20.7641 43.5844 20.3816 43 20.175V25C43.0008 25.628 42.9506 26.2551 42.85 26.875C43.4705 26.6917 44.015 26.3127 44.4025 25.7946C44.79 25.2765 44.9996 24.647 45 24V23Z" fill="#153047"/>
<path d="M57.8945 32H68.1133V29.9141H60.4844V14.9375H57.8945V32ZM69.4961 26.1992C69.4961 28.0273 70.0273 29.5078 71.0898 30.6406C72.1523 31.7656 73.5625 32.3281 75.3203 32.3281C77.0781 32.3281 78.4883 31.7656 79.5508 30.6406C80.6133 29.5078 81.1445 28.0273 81.1445 26.1992V25.8242C81.1445 23.9883 80.6133 22.5078 79.5508 21.3828C78.4883 20.2578 77.0781 19.6953 75.3203 19.6953C73.5625 19.6953 72.1523 20.2578 71.0898 21.3828C70.0273 22.5078 69.4961 23.9883 69.4961 25.8242V26.1992ZM72.0625 25.7656C72.0625 24.5625 72.3398 23.582 72.8945 22.8242C73.4492 22.0586 74.2578 21.6758 75.3203 21.6758C76.3828 21.6758 77.1914 22.0586 77.7461 22.8242C78.3008 23.582 78.5781 24.5625 78.5781 25.7656V26.2461C78.5781 27.4492 78.3008 28.4336 77.7461 29.1992C77.1992 29.9648 76.3906 30.3477 75.3203 30.3477C74.2578 30.3477 73.4492 29.9648 72.8945 29.1992C72.3398 28.4336 72.0625 27.4531 72.0625 26.2578V25.7656ZM83.582 32H86.1016V23.6914C86.3672 23.1289 86.7422 22.6758 87.2266 22.332C87.7188 21.9883 88.2734 21.8164 88.8906 21.8164C89.6172 21.8164 90.1797 22.0078 90.5781 22.3906C90.9766 22.7734 91.1758 23.418 91.1758 24.3242V32H93.6953V24.2891C93.6953 22.6562 93.3281 21.4961 92.5938 20.8086C91.8672 20.1211 90.9023 19.7773 89.6992 19.7773C88.918 19.7773 88.2109 19.9375 87.5781 20.2578C86.9453 20.5703 86.4375 21 86.0547 21.5469H85.9961L85.9258 20.0234H83.582V32ZM96.5664 35.457C97.1445 35.9336 97.8555 36.3281 98.6992 36.6406C99.5508 36.9531 100.48 37.1094 101.488 37.1094C103.145 37.1094 104.488 36.6289 105.52 35.668C106.559 34.7148 107.078 33.3359 107.078 31.5312V20.0234H104.723L104.652 21.5469H104.594C104.297 21.0469 103.832 20.6289 103.199 20.293C102.566 19.957 101.848 19.7891 101.043 19.7891C99.5117 19.7891 98.293 20.3555 97.3867 21.4883C96.4805 22.6133 96.0273 24.0586 96.0273 25.8242V26.1992C96.0273 27.9648 96.4805 29.4102 97.3867 30.5352C98.3008 31.6523 99.5156 32.2109 101.031 32.2109C101.867 32.2109 102.578 32.0625 103.164 31.7656C103.758 31.4688 104.227 31.0742 104.57 30.582V31.6133C104.57 32.7695 104.273 33.6367 103.68 34.2148C103.094 34.793 102.32 35.082 101.359 35.082C100.586 35.082 99.8828 34.9375 99.25 34.6484C98.6172 34.3594 98.1367 34.0469 97.8086 33.7109L96.5664 35.457ZM98.5938 26.2344V25.7891C98.5938 24.6328 98.8438 23.6758 99.3438 22.918C99.8438 22.1523 100.621 21.7695 101.676 21.7695C102.387 21.7695 102.988 21.9648 103.48 22.3555C103.98 22.7383 104.34 23.1914 104.559 23.7148V28.3086C104.348 28.8086 103.992 29.2578 103.492 29.6562C102.992 30.0469 102.391 30.2422 101.688 30.2422C100.625 30.2422 99.8438 29.8633 99.3438 29.1055C98.8438 28.3477 98.5938 27.3906 98.5938 26.2344ZM116.02 32H122.09C123.785 32 125.141 31.5742 126.156 30.7227C127.172 29.8711 127.68 28.6758 127.68 27.1367C127.68 26.0195 127.414 25.1172 126.883 24.4297C126.359 23.7422 125.684 23.2812 124.855 23.0469V23C125.527 22.7656 126.086 22.3477 126.531 21.7461C126.984 21.1367 127.211 20.3555 127.211 19.4023C127.211 17.8789 126.727 16.7539 125.758 16.0273C124.797 15.3008 123.461 14.9375 121.75 14.9375H116.02V32ZM118.574 30.0078V24.0898H121.996C123.059 24.0898 123.84 24.3594 124.34 24.8984C124.848 25.4297 125.102 26.1484 125.102 27.0547C125.102 27.9609 124.848 28.6797 124.34 29.2109C123.84 29.7422 123.059 30.0078 121.996 30.0078H118.574ZM118.574 22.1914V16.9414H121.656C122.719 16.9492 123.484 17.1758 123.953 17.6211C124.422 18.0586 124.656 18.6953 124.656 19.5312C124.656 20.3672 124.422 21.0195 123.953 21.4883C123.484 21.957 122.719 22.1914 121.656 22.1914H118.574ZM130.27 32H132.801V23.832C133.035 23.293 133.391 22.8477 133.867 22.4961C134.344 22.1445 134.895 21.9688 135.52 21.9688C135.723 21.9688 135.91 21.9805 136.082 22.0039C136.254 22.0195 136.414 22.043 136.562 22.0742V19.8594C136.484 19.8281 136.352 19.7969 136.164 19.7656C135.984 19.7266 135.809 19.707 135.637 19.707C134.98 19.707 134.406 19.8867 133.914 20.2461C133.43 20.6055 133.043 21.0312 132.754 21.5234H132.695L132.625 20.0234H130.27V32ZM137.465 26.1992C137.465 28.0273 137.977 29.5078 139 30.6406C140.023 31.7656 141.473 32.3281 143.348 32.3281C144.551 32.3281 145.566 32.0859 146.395 31.6016C147.223 31.1094 147.82 30.543 148.188 29.9023L146.453 28.7188C146.133 29.1719 145.711 29.5625 145.188 29.8906C144.672 30.2109 144.055 30.3711 143.336 30.3711C142.219 30.3711 141.383 29.9844 140.828 29.2109C140.273 28.4297 139.996 27.4414 139.996 26.2461V25.7422C139.996 24.5469 140.254 23.5664 140.77 22.8008C141.293 22.0273 142.07 21.6406 143.102 21.6406C144 21.6406 144.676 21.9297 145.129 22.5078C145.582 23.0781 145.809 23.7617 145.809 24.5586V24.793H139.035V26.5625H148.316V25.625C148.316 23.7891 147.859 22.3438 146.945 21.2891C146.031 20.2266 144.738 19.6953 143.066 19.6953C141.395 19.6953 140.043 20.2617 139.012 21.3945C137.98 22.5195 137.465 23.9961 137.465 25.8242V26.1992ZM150.004 28.4961C150.004 29.7148 150.395 30.6406 151.176 31.2734C151.957 31.8984 152.93 32.2109 154.094 32.2109C155.094 32.2109 155.914 32.0234 156.555 31.6484C157.203 31.2656 157.664 30.832 157.938 30.3477C157.961 30.6523 158.012 30.957 158.09 31.2617C158.176 31.5586 158.273 31.8047 158.383 32H160.832V31.8125C160.684 31.4844 160.57 31.0977 160.492 30.6523C160.414 30.1992 160.375 29.7227 160.375 29.2227V23.7852C160.375 22.3945 159.961 21.3672 159.133 20.7031C158.305 20.0312 157.141 19.6953 155.641 19.6953C154.133 19.6953 152.93 20.043 152.031 20.7383C151.141 21.4336 150.695 22.2773 150.695 23.2695V23.4336H153.168V23.293C153.168 22.8008 153.355 22.3867 153.73 22.0508C154.105 21.7148 154.711 21.5469 155.547 21.5469C156.391 21.5469 156.984 21.75 157.328 22.1562C157.68 22.5547 157.855 23.0898 157.855 23.7617V24.6055H155.207C153.684 24.6055 152.434 24.9453 151.457 25.625C150.488 26.3047 150.004 27.2617 150.004 28.4961ZM152.523 28.332C152.523 27.6836 152.777 27.1758 153.285 26.8086C153.793 26.4414 154.559 26.2578 155.582 26.2578H157.855V27.7812C157.855 28.4297 157.543 29.0234 156.918 29.5625C156.301 30.1016 155.594 30.3711 154.797 30.3711C154.023 30.3711 153.449 30.1914 153.074 29.832C152.707 29.4727 152.523 28.9727 152.523 28.332ZM163.504 32H166.023V28.0391L173.582 20.0234H170.734L166.023 25.1094V14.2227H163.504V32ZM171.18 32H174.133L168.285 24.1719L166.703 25.9297L171.18 32Z" fill="#153047"/>
<rect x="1" y="1" width="188" height="46" rx="23" stroke="#153047" stroke-width="2"/>
</svg>
