<svg width="196" height="48" viewBox="0 0 196 48" fill="none" xmlns="http://www.w3.org/2000/svg">
<rect x="1.5" y="1" width="193" height="46" rx="23" fill="#4DDA6E" fill-opacity="0.15"/>
<path d="M26.5 15V11C26.5 10.7348 26.6054 10.4804 26.7929 10.2929C26.9804 10.1054 27.2348 10 27.5 10C27.7652 10 28.0196 10.1054 28.2071 10.2929C28.3946 10.4804 28.5 10.7348 28.5 11V15C28.5 15.2652 28.3946 15.5196 28.2071 15.7071C28.0196 15.8946 27.7652 16 27.5 16C27.2348 16 26.9804 15.8946 26.7929 15.7071C26.6054 15.5196 26.5 15.2652 26.5 15ZM31.5 16C31.7652 16 32.0196 15.8946 32.2071 15.7071C32.3946 15.5196 32.5 15.2652 32.5 15V11C32.5 10.7348 32.3946 10.4804 32.2071 10.2929C32.0196 10.1054 31.7652 10 31.5 10C31.2348 10 30.9804 10.1054 30.7929 10.2929C30.6054 10.4804 30.5 10.7348 30.5 11V15C30.5 15.2652 30.6054 15.5196 30.7929 15.7071C30.9804 15.8946 31.2348 16 31.5 16ZM35.5 16C35.7652 16 36.0196 15.8946 36.2071 15.7071C36.3946 15.5196 36.5 15.2652 36.5 15V11C36.5 10.7348 36.3946 10.4804 36.2071 10.2929C36.0196 10.1054 35.7652 10 35.5 10C35.2348 10 34.9804 10.1054 34.7929 10.2929C34.6054 10.4804 34.5 10.7348 34.5 11V15C34.5 15.2652 34.6054 15.5196 34.7929 15.7071C34.9804 15.8946 35.2348 16 35.5 16ZM47.5 23V24C47.4993 25.2715 47.0142 26.495 46.1434 27.4215C45.2726 28.3481 44.0815 28.908 42.8125 28.9875C42.1237 30.9139 40.9634 32.6372 39.4375 34H42.5C42.7652 34 43.0196 34.1054 43.2071 34.2929C43.3946 34.4804 43.5 34.7348 43.5 35C43.5 35.2652 43.3946 35.5196 43.2071 35.7071C43.0196 35.8946 42.7652 36 42.5 36H20.5C20.2348 36 19.9804 35.8946 19.7929 35.7071C19.6054 35.5196 19.5 35.2652 19.5 35C19.5 34.7348 19.6054 34.4804 19.7929 34.2929C19.9804 34.1054 20.2348 34 20.5 34H23.5625C22.2882 32.8718 21.2673 31.4865 20.567 29.9352C19.8668 28.384 19.5032 26.702 19.5 25V19C19.5 18.7348 19.6054 18.4804 19.7929 18.2929C19.9804 18.1054 20.2348 18 20.5 18H42.5C43.8261 18 45.0979 18.5268 46.0355 19.4645C46.9732 20.4021 47.5 21.6739 47.5 23ZM41.5 20H21.5V25C21.5041 26.8772 22.0345 28.7157 23.031 30.3066C24.0275 31.8975 25.4502 33.1771 27.1375 34H35.8625C37.1229 33.384 38.2402 32.5107 39.1423 31.4364C40.0445 30.362 40.7114 29.1105 41.1 27.7625C41.1139 27.7397 41.1225 27.7141 41.125 27.6875C41.3763 26.8139 41.5025 25.909 41.5 25V20ZM45.5 23C45.4993 22.3802 45.3066 21.7758 44.9485 21.27C44.5904 20.7641 44.0844 20.3816 43.5 20.175V25C43.5008 25.628 43.4506 26.2551 43.35 26.875C43.9705 26.6917 44.515 26.3127 44.9025 25.7946C45.29 25.2765 45.4996 24.647 45.5 24V23Z" fill="#14401D"/>
<path d="M57.8828 27.3125C57.8828 28.9062 58.4492 30.1406 59.582 31.0156C60.7148 31.8906 62.207 32.3281 64.0586 32.3281C65.9023 32.3281 67.3711 31.8867 68.4648 31.0039C69.5586 30.1133 70.1055 28.9336 70.1055 27.4648C70.1055 26.043 69.6836 24.9375 68.8398 24.1484C67.9961 23.3594 66.6953 22.707 64.9375 22.1914C63.25 21.6914 62.1328 21.2422 61.5859 20.8438C61.0469 20.4375 60.7773 19.8789 60.7773 19.168C60.7773 18.4102 61.0312 17.8086 61.5391 17.3633C62.0547 16.918 62.8594 16.6953 63.9531 16.6953C65.0312 16.6953 65.8438 16.957 66.3906 17.4805C66.9375 17.9961 67.2109 18.6875 67.2109 19.5547V19.8125H69.7773V19.5195C69.7773 18.0508 69.2461 16.8672 68.1836 15.9688C67.1289 15.0625 65.7148 14.6094 63.9414 14.6094C62.1602 14.6094 60.7578 15.0469 59.7344 15.9219C58.7109 16.7969 58.1992 17.9258 58.1992 19.3086C58.1992 20.6602 58.6055 21.7109 59.418 22.4609C60.2305 23.2031 61.5273 23.8359 63.3086 24.3594C64.9805 24.8594 66.1016 25.332 66.6719 25.7773C67.2422 26.2148 67.5273 26.8125 67.5273 27.5703C67.5273 28.375 67.2266 29.0234 66.625 29.5156C66.0312 30.0078 65.1719 30.2539 64.0469 30.2539C62.9219 30.2539 62.043 30.0078 61.4102 29.5156C60.7852 29.0156 60.4727 28.2695 60.4727 27.2773V26.9727H57.8828V27.3125ZM72.5547 32H75.0742V23.7148C75.332 23.1445 75.6953 22.6875 76.1641 22.3438C76.6406 21.9922 77.1953 21.8164 77.8281 21.8164C78.5547 21.8164 79.1211 22.0117 79.5273 22.4023C79.9336 22.793 80.1367 23.4453 80.1367 24.3594V32H82.6562V24.2422C82.6562 22.6484 82.2969 21.5078 81.5781 20.8203C80.8594 20.125 79.9336 19.7773 78.8008 19.7773C77.9805 19.7773 77.25 19.9414 76.6094 20.2695C75.9688 20.5898 75.4531 21.0195 75.0625 21.5586V14.2227H72.5547V32ZM85 26.1992C85 28.0273 85.5312 29.5078 86.5938 30.6406C87.6562 31.7656 89.0664 32.3281 90.8242 32.3281C92.582 32.3281 93.9922 31.7656 95.0547 30.6406C96.1172 29.5078 96.6484 28.0273 96.6484 26.1992V25.8242C96.6484 23.9883 96.1172 22.5078 95.0547 21.3828C93.9922 20.2578 92.582 19.6953 90.8242 19.6953C89.0664 19.6953 87.6562 20.2578 86.5938 21.3828C85.5312 22.5078 85 23.9883 85 25.8242V26.1992ZM87.5664 25.7656C87.5664 24.5625 87.8438 23.582 88.3984 22.8242C88.9531 22.0586 89.7617 21.6758 90.8242 21.6758C91.8867 21.6758 92.6953 22.0586 93.25 22.8242C93.8047 23.582 94.082 24.5625 94.082 25.7656V26.2461C94.082 27.4492 93.8047 28.4336 93.25 29.1992C92.7031 29.9648 91.8945 30.3477 90.8242 30.3477C89.7617 30.3477 88.9531 29.9648 88.3984 29.1992C87.8438 28.4336 87.5664 27.4531 87.5664 26.2578V25.7656ZM99.0859 32H101.617V23.832C101.852 23.293 102.207 22.8477 102.684 22.4961C103.16 22.1445 103.711 21.9688 104.336 21.9688C104.539 21.9688 104.727 21.9805 104.898 22.0039C105.07 22.0195 105.23 22.043 105.379 22.0742V19.8594C105.301 19.8281 105.168 19.7969 104.98 19.7656C104.801 19.7266 104.625 19.707 104.453 19.707C103.797 19.707 103.223 19.8867 102.73 20.2461C102.246 20.6055 101.859 21.0312 101.57 21.5234H101.512L101.441 20.0234H99.0859V32ZM106.246 21.9336H113.324V20.0234H106.246V21.9336ZM108.273 28.7773C108.273 30.0195 108.559 30.9219 109.129 31.4844C109.707 32.0469 110.477 32.3281 111.438 32.3281C111.836 32.3281 112.195 32.293 112.516 32.2227C112.836 32.1602 113.094 32.0859 113.289 32V30.0547C113.094 30.1328 112.898 30.1914 112.703 30.2305C112.508 30.2695 112.309 30.2891 112.105 30.2891C111.66 30.2891 111.328 30.1758 111.109 29.9492C110.891 29.7227 110.781 29.3008 110.781 28.6836V16.8008H108.285V20.7031L108.273 20.9961V28.7773ZM121.188 32H127.258C128.953 32 130.309 31.5742 131.324 30.7227C132.34 29.8711 132.848 28.6758 132.848 27.1367C132.848 26.0195 132.582 25.1172 132.051 24.4297C131.527 23.7422 130.852 23.2812 130.023 23.0469V23C130.695 22.7656 131.254 22.3477 131.699 21.7461C132.152 21.1367 132.379 20.3555 132.379 19.4023C132.379 17.8789 131.895 16.7539 130.926 16.0273C129.965 15.3008 128.629 14.9375 126.918 14.9375H121.188V32ZM123.742 30.0078V24.0898H127.164C128.227 24.0898 129.008 24.3594 129.508 24.8984C130.016 25.4297 130.27 26.1484 130.27 27.0547C130.27 27.9609 130.016 28.6797 129.508 29.2109C129.008 29.7422 128.227 30.0078 127.164 30.0078H123.742ZM123.742 22.1914V16.9414H126.824C127.887 16.9492 128.652 17.1758 129.121 17.6211C129.59 18.0586 129.824 18.6953 129.824 19.5312C129.824 20.3672 129.59 21.0195 129.121 21.4883C128.652 21.957 127.887 22.1914 126.824 22.1914H123.742ZM135.438 32H137.969V23.832C138.203 23.293 138.559 22.8477 139.035 22.4961C139.512 22.1445 140.062 21.9688 140.688 21.9688C140.891 21.9688 141.078 21.9805 141.25 22.0039C141.422 22.0195 141.582 22.043 141.73 22.0742V19.8594C141.652 19.8281 141.52 19.7969 141.332 19.7656C141.152 19.7266 140.977 19.707 140.805 19.707C140.148 19.707 139.574 19.8867 139.082 20.2461C138.598 20.6055 138.211 21.0312 137.922 21.5234H137.863L137.793 20.0234H135.438V32ZM142.633 26.1992C142.633 28.0273 143.145 29.5078 144.168 30.6406C145.191 31.7656 146.641 32.3281 148.516 32.3281C149.719 32.3281 150.734 32.0859 151.562 31.6016C152.391 31.1094 152.988 30.543 153.355 29.9023L151.621 28.7188C151.301 29.1719 150.879 29.5625 150.355 29.8906C149.84 30.2109 149.223 30.3711 148.504 30.3711C147.387 30.3711 146.551 29.9844 145.996 29.2109C145.441 28.4297 145.164 27.4414 145.164 26.2461V25.7422C145.164 24.5469 145.422 23.5664 145.938 22.8008C146.461 22.0273 147.238 21.6406 148.27 21.6406C149.168 21.6406 149.844 21.9297 150.297 22.5078C150.75 23.0781 150.977 23.7617 150.977 24.5586V24.793H144.203V26.5625H153.484V25.625C153.484 23.7891 153.027 22.3438 152.113 21.2891C151.199 20.2266 149.906 19.6953 148.234 19.6953C146.562 19.6953 145.211 20.2617 144.18 21.3945C143.148 22.5195 142.633 23.9961 142.633 25.8242V26.1992ZM155.172 28.4961C155.172 29.7148 155.562 30.6406 156.344 31.2734C157.125 31.8984 158.098 32.2109 159.262 32.2109C160.262 32.2109 161.082 32.0234 161.723 31.6484C162.371 31.2656 162.832 30.832 163.105 30.3477C163.129 30.6523 163.18 30.957 163.258 31.2617C163.344 31.5586 163.441 31.8047 163.551 32H166V31.8125C165.852 31.4844 165.738 31.0977 165.66 30.6523C165.582 30.1992 165.543 29.7227 165.543 29.2227V23.7852C165.543 22.3945 165.129 21.3672 164.301 20.7031C163.473 20.0312 162.309 19.6953 160.809 19.6953C159.301 19.6953 158.098 20.043 157.199 20.7383C156.309 21.4336 155.863 22.2773 155.863 23.2695V23.4336H158.336V23.293C158.336 22.8008 158.523 22.3867 158.898 22.0508C159.273 21.7148 159.879 21.5469 160.715 21.5469C161.559 21.5469 162.152 21.75 162.496 22.1562C162.848 22.5547 163.023 23.0898 163.023 23.7617V24.6055H160.375C158.852 24.6055 157.602 24.9453 156.625 25.625C155.656 26.3047 155.172 27.2617 155.172 28.4961ZM157.691 28.332C157.691 27.6836 157.945 27.1758 158.453 26.8086C158.961 26.4414 159.727 26.2578 160.75 26.2578H163.023V27.7812C163.023 28.4297 162.711 29.0234 162.086 29.5625C161.469 30.1016 160.762 30.3711 159.965 30.3711C159.191 30.3711 158.617 30.1914 158.242 29.832C157.875 29.4727 157.691 28.9727 157.691 28.332ZM168.672 32H171.191V28.0391L178.75 20.0234H175.902L171.191 25.1094V14.2227H168.672V32ZM176.348 32H179.301L173.453 24.1719L171.871 25.9297L176.348 32Z" fill="#14401D"/>
<rect x="1.5" y="1" width="193" height="46" rx="23" stroke="#14401D" stroke-width="2"/>
</svg>
